<?xml version="1.0" encoding="UTF-8" standalone="no"?>
<!-- Created with Inkscape (http://www.inkscape.org/) -->

<svg
   xmlns:dc="http://purl.org/dc/elements/1.1/"
   xmlns:cc="http://creativecommons.org/ns#"
   xmlns:rdf="http://www.w3.org/1999/02/22-rdf-syntax-ns#"
   xmlns:svg="http://www.w3.org/2000/svg"
   xmlns="http://www.w3.org/2000/svg"
   xmlns:sodipodi="http://sodipodi.sourceforge.net/DTD/sodipodi-0.dtd"
   xmlns:inkscape="http://www.inkscape.org/namespaces/inkscape"
   width="127.96729"
   height="575.19391"
   id="svg28211"
   version="1.1"
   inkscape:version="0.48.4 r9939"
   sodipodi:docname="New document 181">
  <defs
     id="defs28213">
    <marker
       inkscape:stockid="Arrow2Mend"
       orient="auto"
       refY="0"
       refX="0"
       id="Arrow2Mend"
       style="overflow:visible">
      <path
         id="path5654"
         style="fill-rule:evenodd;stroke-width:0.625;stroke-linejoin:round"
         d="M 8.7185878,4.0337352 -2.2072895,0.01601326 8.7185884,-4.0017078 c -1.7454984,2.3720609 -1.7354408,5.6174519 -6e-7,8.035443 z"
         transform="scale(-0.6,-0.6)"
         inkscape:connector-curvature="0" />
    </marker>
    <marker
       inkscape:stockid="Arrow2Mend"
       orient="auto"
       refY="0"
       refX="0"
       id="marker28200"
       style="overflow:visible">
      <path
         id="path28202"
         style="fill-rule:evenodd;stroke-width:0.625;stroke-linejoin:round"
         d="M 8.7185878,4.0337352 -2.2072895,0.01601326 8.7185884,-4.0017078 c -1.7454984,2.3720609 -1.7354408,5.6174519 -6e-7,8.035443 z"
         transform="scale(-0.6,-0.6)"
         inkscape:connector-curvature="0" />
    </marker>
  </defs>
  <sodipodi:namedview
     id="base"
     pagecolor="#ffffff"
     bordercolor="#666666"
     borderopacity="1.0"
     inkscape:pageopacity="0.0"
     inkscape:pageshadow="2"
     inkscape:zoom="0.35"
     inkscape:cx="63.977108"
     inkscape:cy="286.59222"
     inkscape:document-units="px"
     inkscape:current-layer="layer1"
     showgrid="false"
     fit-margin-top="0"
     fit-margin-left="0"
     fit-margin-right="0"
     fit-margin-bottom="0"
     inkscape:window-width="472"
     inkscape:window-height="383"
     inkscape:window-x="389"
     inkscape:window-y="24"
     inkscape:window-maximized="0" />
  <metadata
     id="metadata28216">
    <rdf:RDF>
      <cc:Work
         rdf:about="">
        <dc:format>image/svg+xml</dc:format>
        <dc:type
           rdf:resource="http://purl.org/dc/dcmitype/StillImage" />
        <dc:title></dc:title>
      </cc:Work>
    </rdf:RDF>
  </metadata>
  <g
     inkscape:label="Layer 1"
     inkscape:groupmode="layer"
     id="layer1"
     transform="translate(-311.02289,-243.76049)">
    <g
       transform="translate(1911.0001,-7095.2331)"
       style="display:inline"
       id="g28180">
      <path
         transform="matrix(1.4761903,0,0,1.4761903,566.9318,3288.8723)"
         d="m -1382.5669,3068.7966 c 0,23.196 -18.804,42 -42,42 -23.196,0 -42,-18.804 -42,-42 0,-23.1959 18.804,-42 42,-42 23.196,0 42,18.8041 42,42 z"
         sodipodi:ry="42"
         sodipodi:rx="42"
         sodipodi:cy="3068.7966"
         sodipodi:cx="-1424.5669"
         id="path16795"
         style="fill:#ffffff;fill-opacity:1;stroke:#000000;stroke-width:2.70967793;stroke-miterlimit:4;stroke-opacity:1;stroke-dasharray:none;display:inline"
         sodipodi:type="arc" />
      <path
         inkscape:connector-curvature="0"
         id="path16797"
         d="m -1536,7881.8098 0,32.3808"
         style="fill:none;stroke:#000000;stroke-width:4;stroke-linecap:butt;stroke-linejoin:miter;stroke-miterlimit:4;stroke-opacity:1;stroke-dasharray:4.00000002, 4.00000002;stroke-dashoffset:0;marker-end:none;display:inline" />
      <path
         sodipodi:type="arc"
         style="fill:#ffffff;fill-opacity:1;stroke:#000000;stroke-width:2.70967793;stroke-miterlimit:4;stroke-opacity:1;stroke-dasharray:none"
         id="path16801"
         sodipodi:cx="-1424.5669"
         sodipodi:cy="3068.7966"
         sodipodi:rx="42"
         sodipodi:ry="42"
         d="m -1382.5669,3068.7966 c 0,23.196 -18.804,42 -42,42 -23.196,0 -42,-18.804 -42,-42 0,-23.1959 18.804,-42 42,-42 23.196,0 42,18.8041 42,42 z"
         transform="matrix(1.4761903,0,0,1.4761903,566.9318,2872.8721)" />
      <path
         style="fill:none;stroke:#000000;stroke-width:4;stroke-linecap:butt;stroke-linejoin:miter;stroke-miterlimit:4;stroke-opacity:1;stroke-dasharray:none;marker-end:url(#Arrow2Mend)"
         d="m -1536.0001,7467.0001 0,80"
         id="path16803"
         inkscape:connector-curvature="0" />
      <path
         transform="matrix(1.4761903,0,0,1.4761903,566.93176,3080.8723)"
         d="m -1382.5669,3068.7966 c 0,23.196 -18.804,42 -42,42 -23.196,0 -42,-18.804 -42,-42 0,-23.1959 18.804,-42 42,-42 23.196,0 42,18.8041 42,42 z"
         sodipodi:ry="42"
         sodipodi:rx="42"
         sodipodi:cy="3068.7966"
         sodipodi:cx="-1424.5669"
         id="path16807"
         style="fill:#ffffff;fill-opacity:1;stroke:#000000;stroke-width:2.70967793;stroke-miterlimit:4;stroke-opacity:1;stroke-dasharray:none"
         sodipodi:type="arc" />
      <path
         inkscape:connector-curvature="0"
         id="path16809"
         d="m -1536.0001,7675.0002 0,80"
         style="fill:none;stroke:#000000;stroke-width:4;stroke-linecap:butt;stroke-linejoin:miter;stroke-miterlimit:4;stroke-opacity:1;stroke-dasharray:none;marker-end:url(#Arrow2Mend)" />
    </g>
  </g>
</svg>
