<?xml version="1.0" encoding="UTF-8" standalone="no"?>
<!-- Created with Inkscape (http://www.inkscape.org/) -->

<svg
   xmlns:dc="http://purl.org/dc/elements/1.1/"
   xmlns:cc="http://creativecommons.org/ns#"
   xmlns:rdf="http://www.w3.org/1999/02/22-rdf-syntax-ns#"
   xmlns:svg="http://www.w3.org/2000/svg"
   xmlns="http://www.w3.org/2000/svg"
   xmlns:sodipodi="http://sodipodi.sourceforge.net/DTD/sodipodi-0.dtd"
   xmlns:inkscape="http://www.inkscape.org/namespaces/inkscape"
   width="654.00098"
   height="562.39252"
   id="svg24410"
   version="1.1"
   inkscape:version="0.48.4 r9939"
   sodipodi:docname="tree.svg">
  <defs
     id="defs24412" />
  <sodipodi:namedview
     id="base"
     pagecolor="#ffffff"
     bordercolor="#666666"
     borderopacity="1.0"
     inkscape:pageopacity="0.0"
     inkscape:pageshadow="2"
     inkscape:zoom="0.35"
     inkscape:cx="328.001"
     inkscape:cy="281.15531"
     inkscape:document-units="px"
     inkscape:current-layer="layer1"
     showgrid="false"
     inkscape:window-width="472"
     inkscape:window-height="383"
     inkscape:window-x="389"
     inkscape:window-y="24"
     inkscape:window-maximized="0"
     fit-margin-top="0"
     fit-margin-left="0"
     fit-margin-right="0"
     fit-margin-bottom="0" />
  <metadata
     id="metadata24415">
    <rdf:RDF>
      <cc:Work
         rdf:about="">
        <dc:format>image/svg+xml</dc:format>
        <dc:type
           rdf:resource="http://purl.org/dc/dcmitype/StillImage" />
        <dc:title></dc:title>
      </cc:Work>
    </rdf:RDF>
  </metadata>
  <g
     inkscape:label="Layer 1"
     inkscape:groupmode="layer"
     id="layer1"
     transform="translate(-46.999,-251.125)">
    <g
       id="g24550">
      <g
         transform="translate(-249,853.00007)"
         style="display:inline"
         id="use16055">
        <path
           sodipodi:nodetypes="cccccccccccccccccccccccccc"
           inkscape:connector-curvature="0"
           id="path23015"
           d="m 514,-549.63782 0,84 -28,28 m -104,220 0,20 m 40,-132 0,44 m -48,-208 0,80 -32,32 0,140 40,44 m -76,-316 0,72 36,28 0,32 m 40,332 0,-148 40,-40 c 0,-29.33333 0,-18.66666 0,-48 l 64,-64 0,-88 -28,-28 0,-84 m -116,124 0,12"
           style="fill:none;stroke:#babdb6;stroke-width:20;stroke-linecap:round;stroke-linejoin:round;stroke-miterlimit:4;stroke-opacity:1;stroke-dasharray:none" />
        <path
           sodipodi:type="arc"
           style="fill:#ffffff;fill-opacity:1;stroke:#babdb6;stroke-width:30;stroke-linecap:round;stroke-miterlimit:4;stroke-opacity:1;stroke-dasharray:none"
           id="path23017"
           sodipodi:cx="-700"
           sodipodi:cy="152.36218"
           sodipodi:rx="60"
           sodipodi:ry="60"
           d="m -640,152.36218 c 0,33.13709 -26.86292,60 -60,60 -33.13708,0 -60,-26.86291 -60,-60 0,-33.13708 26.86292,-59.999997 60,-59.999997 33.13708,0 60,26.862917 60,59.999997 z"
           transform="matrix(0.13333333,0,0,0.13333333,435.33333,-369.95277)" />
        <path
           sodipodi:type="arc"
           style="fill:#ffffff;fill-opacity:1;stroke:#babdb6;stroke-width:30;stroke-linecap:round;stroke-miterlimit:4;stroke-opacity:1;stroke-dasharray:none"
           id="path23019"
           sodipodi:cx="-700"
           sodipodi:cy="152.36218"
           sodipodi:rx="60"
           sodipodi:ry="60"
           d="m -640,152.36218 c 0,33.13709 -26.86292,60 -60,60 -33.13708,0 -60,-26.86291 -60,-60 0,-33.13708 26.86292,-59.999997 60,-59.999997 33.13708,0 60,26.862917 60,59.999997 z"
           transform="matrix(0.13333333,0,0,0.13333333,435.33333,-401.95277)" />
        <path
           transform="matrix(0.13333333,0,0,0.13333333,435.33333,-337.95277)"
           d="m -640,152.36218 c 0,33.13709 -26.86292,60 -60,60 -33.13708,0 -60,-26.86291 -60,-60 0,-33.13708 26.86292,-59.999997 60,-59.999997 33.13708,0 60,26.862917 60,59.999997 z"
           sodipodi:ry="60"
           sodipodi:rx="60"
           sodipodi:cy="152.36218"
           sodipodi:cx="-700"
           id="path23021"
           style="fill:#ffffff;fill-opacity:1;stroke:#babdb6;stroke-width:30;stroke-linecap:round;stroke-miterlimit:4;stroke-opacity:1;stroke-dasharray:none"
           sodipodi:type="arc" />
        <path
           sodipodi:type="arc"
           style="fill:#ffffff;fill-opacity:1;stroke:#babdb6;stroke-width:30;stroke-linecap:round;stroke-miterlimit:4;stroke-opacity:1;stroke-dasharray:none"
           id="path23023"
           sodipodi:cx="-700"
           sodipodi:cy="152.36218"
           sodipodi:rx="60"
           sodipodi:ry="60"
           d="m -640,152.36218 c 0,33.13709 -26.86292,60 -60,60 -33.13708,0 -60,-26.86291 -60,-60 0,-33.13708 26.86292,-59.999997 60,-59.999997 33.13708,0 60,26.862917 60,59.999997 z"
           transform="matrix(0.13333333,0,0,0.13333333,399.33333,-493.95277)" />
        <path
           transform="matrix(0.13333333,0,0,0.13333333,399.33333,-465.95277)"
           d="m -640,152.36218 c 0,33.13709 -26.86292,60 -60,60 -33.13708,0 -60,-26.86291 -60,-60 0,-33.13708 26.86292,-59.999997 60,-59.999997 33.13708,0 60,26.862917 60,59.999997 z"
           sodipodi:ry="60"
           sodipodi:rx="60"
           sodipodi:cy="152.36218"
           sodipodi:cx="-700"
           id="path23025"
           style="fill:#ffffff;fill-opacity:1;stroke:#babdb6;stroke-width:30;stroke-linecap:round;stroke-miterlimit:4;stroke-opacity:1;stroke-dasharray:none"
           sodipodi:type="arc" />
        <path
           sodipodi:type="arc"
           style="fill:#ffffff;fill-opacity:1;stroke:#babdb6;stroke-width:30;stroke-linecap:round;stroke-miterlimit:4;stroke-opacity:1;stroke-dasharray:none"
           id="path23027"
           sodipodi:cx="-700"
           sodipodi:cy="152.36218"
           sodipodi:rx="60"
           sodipodi:ry="60"
           d="m -640,152.36218 c 0,33.13709 -26.86292,60 -60,60 -33.13708,0 -60,-26.86291 -60,-60 0,-33.13708 26.86292,-59.999997 60,-59.999997 33.13708,0 60,26.862917 60,59.999997 z"
           transform="matrix(0.13333333,0,0,0.13333333,435.33333,-433.95277)" />
        <path
           transform="matrix(0.13333333,0,0,0.13333333,475.33333,-109.95277)"
           d="m -640,152.36218 c 0,33.13709 -26.86292,60 -60,60 -33.13708,0 -60,-26.86291 -60,-60 0,-33.13708 26.86292,-59.999997 60,-59.999997 33.13708,0 60,26.862917 60,59.999997 z"
           sodipodi:ry="60"
           sodipodi:rx="60"
           sodipodi:cy="152.36218"
           sodipodi:cx="-700"
           id="path23029"
           style="fill:#ffffff;fill-opacity:1;stroke:#babdb6;stroke-width:30;stroke-linecap:round;stroke-miterlimit:4;stroke-opacity:1;stroke-dasharray:none"
           sodipodi:type="arc" />
        <path
           sodipodi:type="arc"
           style="fill:#ffffff;fill-opacity:1;stroke:#babdb6;stroke-width:30;stroke-linecap:round;stroke-miterlimit:4;stroke-opacity:1;stroke-dasharray:none"
           id="path23031"
           sodipodi:cx="-700"
           sodipodi:cy="152.36218"
           sodipodi:rx="60"
           sodipodi:ry="60"
           d="m -640,152.36218 c 0,33.13709 -26.86292,60 -60,60 -33.13708,0 -60,-26.86291 -60,-60 0,-33.13708 26.86292,-59.999997 60,-59.999997 33.13708,0 60,26.862917 60,59.999997 z"
           transform="matrix(0.13333333,0,0,0.13333333,475.33333,-137.95277)" />
        <path
           sodipodi:type="arc"
           style="fill:#ffffff;fill-opacity:1;stroke:#babdb6;stroke-width:30;stroke-linecap:round;stroke-miterlimit:4;stroke-opacity:1;stroke-dasharray:none"
           id="path23033"
           sodipodi:cx="-700"
           sodipodi:cy="152.36218"
           sodipodi:rx="60"
           sodipodi:ry="60"
           d="m -640,152.36218 c 0,33.13709 -26.86292,60 -60,60 -33.13708,0 -60,-26.86291 -60,-60 0,-33.13708 26.86292,-59.999997 60,-59.999997 33.13708,0 60,26.862917 60,59.999997 z"
           transform="matrix(0.13333333,0,0,0.13333333,467.33333,-445.95277)" />
        <path
           transform="matrix(0.13333333,0,0,0.13333333,467.33333,-473.95277)"
           d="m -640,152.36218 c 0,33.13709 -26.86292,60 -60,60 -33.13708,0 -60,-26.86291 -60,-60 0,-33.13708 26.86292,-59.999997 60,-59.999997 33.13708,0 60,26.862917 60,59.999997 z"
           sodipodi:ry="60"
           sodipodi:rx="60"
           sodipodi:cy="152.36218"
           sodipodi:cx="-700"
           id="path23035"
           style="fill:#ffffff;fill-opacity:1;stroke:#babdb6;stroke-width:30;stroke-linecap:round;stroke-miterlimit:4;stroke-opacity:1;stroke-dasharray:none"
           sodipodi:type="arc" />
        <path
           sodipodi:type="arc"
           style="fill:#ffffff;fill-opacity:1;stroke:#babdb6;stroke-width:30;stroke-linecap:round;stroke-miterlimit:4;stroke-opacity:1;stroke-dasharray:none"
           id="path23037"
           sodipodi:cx="-700"
           sodipodi:cy="152.36218"
           sodipodi:rx="60"
           sodipodi:ry="60"
           d="m -640,152.36218 c 0,33.13709 -26.86292,60 -60,60 -33.13708,0 -60,-26.86291 -60,-60 0,-33.13708 26.86292,-59.999997 60,-59.999997 33.13708,0 60,26.862917 60,59.999997 z"
           transform="matrix(0.13333333,0,0,0.13333333,467.33333,-501.95277)" />
        <path
           sodipodi:type="arc"
           style="fill:#ffffff;fill-opacity:1;stroke:#babdb6;stroke-width:30;stroke-linecap:round;stroke-miterlimit:4;stroke-opacity:1;stroke-dasharray:none"
           id="path23039"
           sodipodi:cx="-700"
           sodipodi:cy="152.36218"
           sodipodi:rx="60"
           sodipodi:ry="60"
           d="m -640,152.36218 c 0,33.13709 -26.86292,60 -60,60 -33.13708,0 -60,-26.86291 -60,-60 0,-33.13708 26.86292,-59.999997 60,-59.999997 33.13708,0 60,26.862917 60,59.999997 z"
           transform="matrix(0.13333333,0,0,0.13333333,579.33333,-441.95277)" />
        <path
           sodipodi:type="arc"
           style="fill:#ffffff;fill-opacity:1;stroke:#babdb6;stroke-width:30;stroke-linecap:round;stroke-linejoin:round;stroke-miterlimit:4;stroke-opacity:1;stroke-dasharray:none"
           id="path23041"
           sodipodi:cx="-700"
           sodipodi:cy="152.36218"
           sodipodi:rx="60"
           sodipodi:ry="60"
           d="m -640,152.36218 c 0,33.13709 -26.86292,60 -60,60 -33.13708,0 -60,-26.86291 -60,-60 0,-33.13708 26.86292,-59.999997 60,-59.999997 33.13708,0 60,26.862917 60,59.999997 z"
           transform="matrix(0.13333333,0,0,0.13333333,515.33333,-305.95277)" />
        <path
           transform="matrix(0.13333333,0,0,0.13333333,515.33333,-273.95277)"
           d="m -640,152.36218 c 0,33.13709 -26.86292,60 -60,60 -33.13708,0 -60,-26.86291 -60,-60 0,-33.13708 26.86292,-59.999997 60,-59.999997 33.13708,0 60,26.862917 60,59.999997 z"
           sodipodi:ry="60"
           sodipodi:rx="60"
           sodipodi:cy="152.36218"
           sodipodi:cx="-700"
           id="path23043"
           style="fill:#ffffff;fill-opacity:1;stroke:#babdb6;stroke-width:30;stroke-linecap:round;stroke-miterlimit:4;stroke-opacity:1;stroke-dasharray:none"
           sodipodi:type="arc" />
        <path
           sodipodi:type="arc"
           style="fill:#ffffff;fill-opacity:1;stroke:#babdb6;stroke-width:30;stroke-linecap:round;stroke-miterlimit:4;stroke-opacity:1;stroke-dasharray:none"
           id="path23045"
           sodipodi:cx="-700"
           sodipodi:cy="152.36218"
           sodipodi:rx="60"
           sodipodi:ry="60"
           d="m -640,152.36218 c 0,33.13709 -26.86292,60 -60,60 -33.13708,0 -60,-26.86291 -60,-60 0,-33.13708 26.86292,-59.999997 60,-59.999997 33.13708,0 60,26.862917 60,59.999997 z"
           transform="matrix(0.13333333,0,0,0.13333333,551.33333,-529.95277)" />
        <path
           transform="matrix(0.13333333,0,0,0.13333333,551.33333,-501.95277)"
           d="m -640,152.36218 c 0,33.13709 -26.86292,60 -60,60 -33.13708,0 -60,-26.86291 -60,-60 0,-33.13708 26.86292,-59.999997 60,-59.999997 33.13708,0 60,26.862917 60,59.999997 z"
           sodipodi:ry="60"
           sodipodi:rx="60"
           sodipodi:cy="152.36218"
           sodipodi:cx="-700"
           id="path23047"
           style="fill:#ffffff;fill-opacity:1;stroke:#babdb6;stroke-width:30;stroke-linecap:round;stroke-miterlimit:4;stroke-opacity:1;stroke-dasharray:none"
           sodipodi:type="arc" />
        <path
           transform="matrix(0.13333333,0,0,0.13333333,579.33333,-385.95277)"
           d="m -640,152.36218 c 0,33.13709 -26.86292,60 -60,60 -33.13708,0 -60,-26.86291 -60,-60 0,-33.13708 26.86292,-59.999997 60,-59.999997 33.13708,0 60,26.862917 60,59.999997 z"
           sodipodi:ry="60"
           sodipodi:rx="60"
           sodipodi:cy="152.36218"
           sodipodi:cx="-700"
           id="path23049"
           style="fill:#ffffff;fill-opacity:1;stroke:#babdb6;stroke-width:30;stroke-linecap:round;stroke-miterlimit:4;stroke-opacity:1;stroke-dasharray:none"
           sodipodi:type="arc" />
        <path
           transform="matrix(0.13333333,0,0,0.13333333,579.33333,-413.95277)"
           d="m -640,152.36218 c 0,33.13709 -26.86292,60 -60,60 -33.13708,0 -60,-26.86291 -60,-60 0,-33.13708 26.86292,-59.999997 60,-59.999997 33.13708,0 60,26.862917 60,59.999997 z"
           sodipodi:ry="60"
           sodipodi:rx="60"
           sodipodi:cy="152.36218"
           sodipodi:cx="-700"
           id="path23051"
           style="fill:#ffffff;fill-opacity:1;stroke:#babdb6;stroke-width:30;stroke-linecap:round;stroke-miterlimit:4;stroke-opacity:1;stroke-dasharray:none"
           sodipodi:type="arc" />
        <path
           transform="matrix(0.13333333,0,0,0.13333333,475.33333,-201.95277)"
           d="m -640,152.36218 c 0,33.13709 -26.86292,60 -60,60 -33.13708,0 -60,-26.86291 -60,-60 0,-33.13708 26.86292,-59.999997 60,-59.999997 33.13708,0 60,26.862917 60,59.999997 z"
           sodipodi:ry="60"
           sodipodi:rx="60"
           sodipodi:cy="152.36218"
           sodipodi:cx="-700"
           id="path23053"
           style="fill:#ffffff;fill-opacity:1;stroke:#babdb6;stroke-width:30;stroke-linecap:round;stroke-miterlimit:4;stroke-opacity:1;stroke-dasharray:none"
           sodipodi:type="arc" />
        <path
           transform="matrix(0.13333333,0,0,0.13333333,435.33333,-305.95277)"
           d="m -640,152.36218 c 0,33.13709 -26.86292,60 -60,60 -33.13708,0 -60,-26.86291 -60,-60 0,-33.13708 26.86292,-59.999997 60,-59.999997 33.13708,0 60,26.862917 60,59.999997 z"
           sodipodi:ry="60"
           sodipodi:rx="60"
           sodipodi:cy="152.36218"
           sodipodi:cx="-700"
           id="path23055"
           style="fill:#ffffff;fill-opacity:1;stroke:#babdb6;stroke-width:30;stroke-linecap:round;stroke-miterlimit:4;stroke-opacity:1;stroke-dasharray:none"
           sodipodi:type="arc" />
        <path
           sodipodi:type="arc"
           style="fill:#ffffff;fill-opacity:1;stroke:#babdb6;stroke-width:30;stroke-linecap:round;stroke-miterlimit:4;stroke-opacity:1;stroke-dasharray:none"
           id="path23057"
           sodipodi:cx="-700"
           sodipodi:cy="152.36218"
           sodipodi:rx="60"
           sodipodi:ry="60"
           d="m -640,152.36218 c 0,33.13709 -26.86292,60 -60,60 -33.13708,0 -60,-26.86291 -60,-60 0,-33.13708 26.86292,-59.999997 60,-59.999997 33.13708,0 60,26.862917 60,59.999997 z"
           transform="matrix(0.13333333,0,0,0.13333333,435.33333,-273.95277)" />
        <path
           transform="matrix(0.13333333,0,0,0.13333333,399.33333,-521.95277)"
           d="m -640,152.36218 c 0,33.13709 -26.86292,60 -60,60 -33.13708,0 -60,-26.86291 -60,-60 0,-33.13708 26.86292,-59.999997 60,-59.999997 33.13708,0 60,26.862917 60,59.999997 z"
           sodipodi:ry="60"
           sodipodi:rx="60"
           sodipodi:cy="152.36218"
           sodipodi:cx="-700"
           id="path23059"
           style="fill:#ffffff;fill-opacity:1;stroke:#babdb6;stroke-width:30;stroke-linecap:round;stroke-miterlimit:4;stroke-opacity:1;stroke-dasharray:none"
           sodipodi:type="arc" />
        <path
           transform="matrix(0.13333333,0,0,0.13333333,475.33333,-81.952771)"
           d="m -640,152.36218 c 0,33.13709 -26.86292,60 -60,60 -33.13708,0 -60,-26.86291 -60,-60 0,-33.13708 26.86292,-59.999997 60,-59.999997 33.13708,0 60,26.862917 60,59.999997 z"
           sodipodi:ry="60"
           sodipodi:rx="60"
           sodipodi:cy="152.36218"
           sodipodi:cx="-700"
           id="path23061"
           style="fill:#ffffff;fill-opacity:1;stroke:#babdb6;stroke-width:30;stroke-linecap:round;stroke-miterlimit:4;stroke-opacity:1;stroke-dasharray:none"
           sodipodi:type="arc" />
        <path
           transform="matrix(0.13333333,0,0,0.13333333,475.33333,-169.95277)"
           d="m -640,152.36218 c 0,33.13709 -26.86292,60 -60,60 -33.13708,0 -60,-26.86291 -60,-60 0,-33.13708 26.86292,-59.999997 60,-59.999997 33.13708,0 60,26.862917 60,59.999997 z"
           sodipodi:ry="60"
           sodipodi:rx="60"
           sodipodi:cy="152.36218"
           sodipodi:cx="-700"
           id="path23063"
           style="fill:#ffffff;fill-opacity:1;stroke:#babdb6;stroke-width:30;stroke-linecap:round;stroke-miterlimit:4;stroke-opacity:1;stroke-dasharray:none"
           sodipodi:type="arc" />
        <path
           sodipodi:type="arc"
           style="fill:#ffffff;fill-opacity:1;stroke:#babdb6;stroke-width:30;stroke-linecap:round;stroke-miterlimit:4;stroke-opacity:1;stroke-dasharray:none"
           id="path23065"
           sodipodi:cx="-700"
           sodipodi:cy="152.36218"
           sodipodi:rx="60"
           sodipodi:ry="60"
           d="m -640,152.36218 c 0,33.13709 -26.86292,60 -60,60 -33.13708,0 -60,-26.86291 -60,-60 0,-33.13708 26.86292,-59.999997 60,-59.999997 33.13708,0 60,26.862917 60,59.999997 z"
           transform="matrix(0.13333333,0,0,0.13333333,515.33333,-337.95277)" />
        <path
           transform="matrix(0.13333333,0,0,0.13333333,551.33333,-557.95277)"
           d="m -640,152.36218 c 0,33.13709 -26.86292,60 -60,60 -33.13708,0 -60,-26.86291 -60,-60 0,-33.13708 26.86292,-59.999997 60,-59.999997 33.13708,0 60,26.862917 60,59.999997 z"
           sodipodi:ry="60"
           sodipodi:rx="60"
           sodipodi:cy="152.36218"
           sodipodi:cx="-700"
           id="path23067"
           style="fill:#ffffff;fill-opacity:1;stroke:#babdb6;stroke-width:30;stroke-linecap:round;stroke-miterlimit:4;stroke-opacity:1;stroke-dasharray:none"
           sodipodi:type="arc" />
        <path
           transform="matrix(0.13333333,0,0,0.13333333,607.33333,-529.95277)"
           d="m -640,152.36218 c 0,33.13709 -26.86292,60 -60,60 -33.13708,0 -60,-26.86291 -60,-60 0,-33.13708 26.86292,-59.999997 60,-59.999997 33.13708,0 60,26.862917 60,59.999997 z"
           sodipodi:ry="60"
           sodipodi:rx="60"
           sodipodi:cy="152.36218"
           sodipodi:cx="-700"
           id="path23069"
           style="fill:#ffffff;fill-opacity:1;stroke:#babdb6;stroke-width:30;stroke-linecap:round;stroke-miterlimit:4;stroke-opacity:1;stroke-dasharray:none"
           sodipodi:type="arc" />
        <path
           sodipodi:type="arc"
           style="fill:#ffffff;fill-opacity:1;stroke:#babdb6;stroke-width:30;stroke-linecap:round;stroke-miterlimit:4;stroke-opacity:1;stroke-dasharray:none"
           id="path23071"
           sodipodi:cx="-700"
           sodipodi:cy="152.36218"
           sodipodi:rx="60"
           sodipodi:ry="60"
           d="m -640,152.36218 c 0,33.13709 -26.86292,60 -60,60 -33.13708,0 -60,-26.86291 -60,-60 0,-33.13708 26.86292,-59.999997 60,-59.999997 33.13708,0 60,26.862917 60,59.999997 z"
           transform="matrix(0.13333333,0,0,0.13333333,607.33333,-501.95277)" />
        <path
           sodipodi:type="arc"
           style="fill:#ffffff;fill-opacity:1;stroke:#babdb6;stroke-width:30;stroke-linecap:round;stroke-miterlimit:4;stroke-opacity:1;stroke-dasharray:none"
           id="path23073"
           sodipodi:cx="-700"
           sodipodi:cy="152.36218"
           sodipodi:rx="60"
           sodipodi:ry="60"
           d="m -640,152.36218 c 0,33.13709 -26.86292,60 -60,60 -33.13708,0 -60,-26.86291 -60,-60 0,-33.13708 26.86292,-59.999997 60,-59.999997 33.13708,0 60,26.862917 60,59.999997 z"
           transform="matrix(0.13333333,0,0,0.13333333,607.33333,-557.95277)" />
      </g>
      <path
         id="use16061"
         style="fill:#8ae234;stroke:#4e9a06;stroke-width:4;stroke-linecap:round;stroke-linejoin:miter;stroke-miterlimit:4;stroke-opacity:1;stroke-dasharray:none;display:inline"
         d="m 459.4773,384.14863 c 8.8683,3.7399 19.2494,6.8982 23.642,12.6909 m -23.642,-12.6909 c -1.9111,11.8113 16.8164,30.3864 31.5226,16.9211 -3.9011,-28.8316 -29.1033,-17.7742 -31.5226,-16.9211 z"
         inkscape:connector-curvature="0" />
      <path
         style="font-size:medium;font-style:normal;font-variant:normal;font-weight:normal;font-stretch:normal;text-indent:0;text-align:start;text-decoration:none;line-height:normal;letter-spacing:normal;word-spacing:normal;text-transform:none;direction:ltr;block-progression:tb;writing-mode:lr-tb;text-anchor:start;baseline-shift:baseline;color:#000000;fill:#e9b96e;stroke:#ce5c00;stroke-width:4;stroke-miterlimit:4;stroke-opacity:1;stroke-dasharray:none;marker:none;visibility:visible;display:inline;overflow:visible;enable-background:accumulate;font-family:Sans;-inkscape-font-specification:Sans"
         d="m 701,811.36243 -164,0 c -8,0 -18,0 -18,-11.9872 l 0,-141.25 c 6.3368,-2.2454 14.1139,-4.5285 21.7188,-9.3437 C 550.8051,642.39503 559,629.77083 559,611.37523 l 0,-40.5625 c 14.3596,-4.2808 28.6713,-9.2969 40.5938,-18.6562 C 613.5203,541.22393 623,523.71343 623,499.37523 l 0,-81.8125 c 4.8355,-2.3517 9.9593,-4.926 14.9375,-8.7812 6.87,-5.3204 13.0625,-14.2561 13.0625,-25.4063 l 0,-84 c 0.037,-2.6415 -1.0236,-5.2818 -2.8784,-7.163 -1.8548,-1.8812 -4.4798,-2.9794 -7.1216,-2.9794 -2.6418,0 -5.2668,1.0982 -7.1216,2.9794 -1.8548,1.8812 -2.9154,4.5215 -2.8784,7.163 l 0,84 c 0,4.8498 -1.371,6.5656 -5.2812,9.5938 -2.8077,2.1743 -7.1278,4.3884 -11.7813,6.7187 -5.4634,-3.3707 -10.5677,-4.9565 -13.6563,-6.7812 -4.1436,-2.4482 -5.2812,-2.5041 -5.2812,-9.5313 l 0,-84 c 0.042,-2.6701 -1.0397,-5.3399 -2.928,-7.2282 -1.8882,-1.8883 -4.5581,-2.9698 -7.2282,-2.928 -2.618,0.041 -5.2031,1.1592 -7.0254,3.0393 -1.8223,1.8802 -2.8594,4.4989 -2.8184,7.1169 l 0,84 c 0,12.9728 7.7782,22.4278 15.0938,26.75 5.1391,3.0364 9.6654,4.9266 12.9062,6.625 l 0,82.625 c 0,19.6619 -5.9606,29.3777 -15.75,37.0625 -7.1624,5.6226 -17.0488,9.7375 -28.25,13.4063 l 0,-30.4688 c 0.037,-2.6415 -1.0236,-5.2818 -2.8784,-7.163 -1.8548,-1.8812 -4.4798,-2.9794 -7.1216,-2.9794 -2.6418,0 -5.2668,1.0982 -7.1216,2.9794 -1.8548,1.8812 -2.9154,4.5215 -2.8784,7.163 l 0,44 0,48 c 0,13.6045 -3.3058,16.9144 -8.9688,20.5 -2.8371,1.7964 -6.6574,3.2117 -11.0312,4.7813 l 0,-5.2813 c 0.037,-2.6415 -1.0236,-5.2818 -2.8784,-7.163 -1.8548,-1.8812 -4.4798,-2.9794 -7.1216,-2.9794 -2.6418,0 -5.2668,1.0982 -7.1216,2.9794 -1.8548,1.8812 -2.9154,4.5215 -2.8784,7.163 l 0,5.0938 c -4.3633,-1.3755 -8.1293,-2.4186 -10.7812,-4.0313 -5.374,-3.268 -9.2188,-7.0701 -9.2188,-25.0625 l 0,-134.25 c 2.9411,-0.9286 7.5134,-1.8406 13.8438,-4.4062 4.6161,-1.8709 9.9346,-5.4987 13.3124,-11.2813 3.3779,-5.7826 4.8438,-12.9618 4.8438,-22.0625 l 0,-80 c 0.037,-2.6415 -1.0236,-5.2818 -2.8784,-7.163 -1.8548,-1.8812 -4.4798,-2.9794 -7.1216,-2.9794 -2.6418,0 -5.2668,1.0982 -7.1216,2.9794 -1.8548,1.8812 -2.9154,4.5215 -2.8784,7.163 l 0,80 c 0,6.8994 -1.1696,10.3867 -2.0938,11.9688 -0.9241,1.5821 -1.5683,1.9916 -3.5937,2.8125 -1.3071,0.5297 -3.9675,1.0386 -6.3125,1.5312 l 0,-15.625 c 0.01,-0.2291 0.01,-0.4584 0,-0.6875 l 0,-12 c 0.075,-4.7005 -3.6147,-9.1795 -8.2427,-10.0054 -4.628,-0.8258 -9.6394,2.1003 -11.1948,6.5367 -3.2699,-1.4102 -6.4618,-2.7916 -8.9687,-4.1875 -3.0029,-1.672 -5.1408,-3.344 -6.2188,-4.6563 -1.078,-1.3122 -1.375,-1.9714 -1.375,-3.6875 l 0,-72 c 0.037,-2.6415 -1.0236,-5.2818 -2.8784,-7.163 -1.8548,-1.8812 -4.4798,-2.9794 -7.1216,-2.9794 -2.6418,0 -5.2668,1.0982 -7.1216,2.9794 -1.8548,1.8812 -2.9154,4.5215 -2.8784,7.163 l 0,72 c 0,6.2839 2.4335,12.1477 5.9062,16.375 3.4728,4.2273 7.6997,7.0779 11.9376,9.4375 6.4147,3.5718 12.7439,6.1275 18.1562,8.5625 l 0,25.5625 0,0.062 0,140 c 0,22.0076 8.195,35.6805 18.8438,42.1563 7.9063,4.808 15.5344,6.5828 21.1562,8.4375 l 0,141.4062 c 0,11.9872 -10,11.9872 -14,11.9872 l -104,0"
         id="path16063"
         inkscape:connector-curvature="0"
         sodipodi:nodetypes="cccsscsscsscssscssccscscscsscssccsssccssccsssccsscscscssscscsccccsccsscssscscscccsscccsc" />
      <path
         id="use16065"
         style="fill:#8ae234;stroke:#4e9a06;stroke-width:4;stroke-linecap:round;stroke-linejoin:miter;stroke-miterlimit:4;stroke-opacity:1;stroke-dasharray:none;display:inline"
         d="m 448.875,291.27603 c -5.0897,8.1687 -11.7507,16.7345 -12,24 m 12,-24 c 8.3714,8.5487 3.7793,34.5231 -16,32 -13.4354,-25.8064 13.5314,-31.3022 16,-32 z"
         inkscape:connector-curvature="0" />
      <path
         id="use16067"
         style="fill:#8ae234;stroke:#4e9a06;stroke-width:4;stroke-linecap:round;stroke-linejoin:miter;stroke-miterlimit:4;stroke-opacity:1;stroke-dasharray:none;display:inline"
         d="m 397.4773,306.14863 c 8.8683,3.7399 19.2494,6.8982 23.642,12.6909 m -23.642,-12.6909 c -1.9111,11.8113 16.8164,30.3864 31.5226,16.9211 -3.9011,-28.8316 -29.1033,-17.7742 -31.5226,-16.9211 z"
         inkscape:connector-curvature="0" />
      <path
         id="use16069"
         style="fill:#8ae234;stroke:#4e9a06;stroke-width:4;stroke-linecap:round;stroke-linejoin:miter;stroke-miterlimit:4;stroke-opacity:1;stroke-dasharray:none;display:inline"
         d="m 442.9338,329.72993 c 9.0953,-3.1477 18.9269,-7.7392 26.0662,-6.368 m -26.0662,6.368 c 6.4751,10.0614 32.8206,11.3549 34.755,-8.4906 -22.1765,-18.8332 -33.5262,6.2387 -34.755,8.4906 z"
         inkscape:connector-curvature="0" />
      <path
         id="use16071"
         style="fill:#8ae234;stroke:#4e9a06;stroke-width:4;stroke-linecap:round;stroke-linejoin:miter;stroke-miterlimit:4;stroke-opacity:1;stroke-dasharray:none;display:inline"
         d="m 657,253.36193 c -5.0897,8.1687 -11.7507,16.7345 -12,24 m 12,-24 c 8.3714,8.5487 3.7793,34.5231 -16,32 -13.4354,-25.8064 13.5314,-31.3022 16,-32 z"
         inkscape:connector-curvature="0" />
      <path
         id="use16073"
         style="fill:#8ae234;stroke:#4e9a06;stroke-width:4;stroke-linecap:round;stroke-linejoin:miter;stroke-miterlimit:4;stroke-opacity:1;stroke-dasharray:none;display:inline"
         d="m 607.6023,268.23453 c 8.8683,3.7399 19.2494,6.8982 23.642,12.6909 m -23.642,-12.6909 c -1.9111,11.8113 16.8164,30.3864 31.5226,16.9211 -3.9011,-28.8316 -29.1033,-17.7742 -31.5226,-16.9211 z"
         inkscape:connector-curvature="0" />
      <path
         id="use16075"
         style="fill:#8ae234;stroke:#4e9a06;stroke-width:4;stroke-linecap:round;stroke-linejoin:miter;stroke-miterlimit:4;stroke-opacity:1;stroke-dasharray:none;display:inline"
         d="m 647.0588,287.81573 c 9.0953,-3.1477 18.9269,-7.7392 26.0662,-6.368 m -26.0662,6.368 c 6.4751,10.0614 32.8206,11.3549 34.755,-8.4906 -22.1765,-18.8332 -33.5262,6.2387 -34.755,8.4906 z"
         inkscape:connector-curvature="0" />
      <path
         id="use16077"
         style="fill:#8ae234;stroke:#4e9a06;stroke-width:4;stroke-linecap:round;stroke-linejoin:miter;stroke-miterlimit:4;stroke-opacity:1;stroke-dasharray:none;display:inline"
         d="m 563.0174,475.19013 c -5.0897,8.1687 -11.7507,16.7345 -12,24 m 12,-24 c 8.3714,8.5487 3.7793,34.5231 -16,32 -13.4354,-25.8064 13.5314,-31.3022 16,-32 z"
         inkscape:connector-curvature="0" />
      <path
         id="use16079"
         style="fill:#8ae234;stroke:#4e9a06;stroke-width:4;stroke-linecap:round;stroke-linejoin:miter;stroke-miterlimit:4;stroke-opacity:1;stroke-dasharray:none;display:inline"
         d="m 513.6197,492.06273 c 8.8683,3.7399 19.2494,6.8982 23.642,12.6909 m -23.642,-12.6909 c -1.9111,11.8113 16.8164,30.3864 31.5226,16.9211 -3.9011,-28.8316 -29.1033,-17.7742 -31.5226,-16.9211 z"
         inkscape:connector-curvature="0" />
      <path
         id="use16081"
         style="fill:#8ae234;stroke:#4e9a06;stroke-width:4;stroke-linecap:round;stroke-linejoin:miter;stroke-miterlimit:4;stroke-opacity:1;stroke-dasharray:none;display:inline"
         d="m 557.0762,507.64403 c 9.0953,-3.1477 18.9269,-7.7392 26.0662,-6.368 m -26.0662,6.368 c 6.4751,10.0614 32.8206,11.3549 34.755,-8.4906 -22.1765,-18.8332 -33.5262,6.2387 -34.755,8.4906 z"
         inkscape:connector-curvature="0" />
      <path
         id="use16083"
         style="fill:#8ae234;stroke:#4e9a06;stroke-width:4;stroke-linecap:round;stroke-linejoin:miter;stroke-miterlimit:4;stroke-opacity:1;stroke-dasharray:none;display:inline"
         d="m 510.7493,309.36193 c -3.9701,8.7676 -9.4455,18.1357 -8.7362,25.3708 m 8.7362,-25.3708 c 9.4239,7.3723 8.2911,33.7251 -11.6482,33.8278 -16.7157,-23.8132 9.293,-32.8111 11.6482,-33.8278 z"
         inkscape:connector-curvature="0" />
      <path
         id="use16085"
         style="fill:#8ae234;stroke:#4e9a06;stroke-width:4;stroke-linecap:round;stroke-linejoin:miter;stroke-miterlimit:4;stroke-opacity:1;stroke-dasharray:none;display:inline"
         d="m 512.9338,405.72993 c 9.0953,-3.1477 18.9269,-7.7392 26.0662,-6.368 m -26.0662,6.368 c 6.4751,10.0614 32.8206,11.3549 34.755,-8.4906 -22.1765,-18.8332 -33.5262,6.2387 -34.755,8.4906 z"
         inkscape:connector-curvature="0" />
      <path
         id="use16087"
         style="fill:#8ae234;stroke:#4e9a06;stroke-width:4;stroke-linecap:round;stroke-linejoin:miter;stroke-miterlimit:4;stroke-opacity:1;stroke-dasharray:none;display:inline"
         d="m 432.9582,567.45873 c 7.2794,6.2963 16.1773,12.5068 18.5658,19.373 m -18.5658,-19.373 c -5.4661,10.6434 6.6081,34.0949 24.7544,25.8306 5.1953,-28.6267 -22.1899,-25.8947 -24.7544,-25.8306 z"
         inkscape:connector-curvature="0" />
      <path
         id="use16089"
         style="fill:#8ae234;stroke:#4e9a06;stroke-width:4;stroke-linecap:round;stroke-linejoin:miter;stroke-miterlimit:4;stroke-opacity:1;stroke-dasharray:none;display:inline"
         d="m 543.3063,346.14863 c 8.8683,3.7399 19.2494,6.8982 23.642,12.6909 m -23.642,-12.6909 c -1.9111,11.8113 16.8164,30.3864 31.5226,16.9211 -3.9011,-28.8316 -29.1033,-17.7742 -31.5226,-16.9211 z"
         inkscape:connector-curvature="0" />
      <path
         id="use16091"
         style="fill:#8ae234;stroke:#4e9a06;stroke-width:4;stroke-linecap:round;stroke-linejoin:miter;stroke-miterlimit:4;stroke-opacity:1;stroke-dasharray:none;display:inline"
         d="m 458.3776,609.52283 c -9.0954,-3.1477 -18.927,-7.7392 -26.0663,-6.368 m 26.0663,6.368 c -6.4752,10.0614 -32.8207,11.3549 -34.755,-8.4906 22.1764,-18.8332 33.5261,6.2387 34.755,8.4906 z"
         inkscape:connector-curvature="0" />
      <path
         id="use16093"
         style="fill:#8ae234;stroke:#4e9a06;stroke-width:4;stroke-linecap:round;stroke-linejoin:miter;stroke-miterlimit:4;stroke-opacity:1;stroke-dasharray:none;display:inline"
         d="m 494.6722,588.10063 c 0.8146,9.59 0.6085,20.439 4.7591,26.4074 m -4.7591,-26.4074 c 11.8235,1.8345 23.698,25.3876 6.3455,35.2099 -26.2127,-12.6245 -7.9048,-33.1729 -6.3455,-35.2099 z"
         inkscape:connector-curvature="0" />
      <path
         id="use16095"
         style="fill:#8ae234;stroke:#4e9a06;stroke-width:4;stroke-linecap:round;stroke-linejoin:miter;stroke-miterlimit:4;stroke-opacity:1;stroke-dasharray:none;display:inline"
         d="m 423.4521,458.36583 c 9.5212,1.4069 20.3622,1.873 26.0621,6.3852 m -26.0621,-6.3852 c 1.0988,11.9144 23.8715,25.2246 34.7494,8.5136 -10.9771,-26.9441 -32.6197,-9.9438 -34.7494,-8.5136 z"
         inkscape:connector-curvature="0" />
      <path
         id="use16097"
         style="fill:#8ae234;stroke:#4e9a06;stroke-width:4;stroke-linecap:round;stroke-linejoin:miter;stroke-miterlimit:4;stroke-opacity:1;stroke-dasharray:none;display:inline"
         d="m 511.7346,618.85203 c 5.4,-7.967 10.5253,-17.5312 17.0643,-20.7077 m -17.0643,20.7077 c 11.2105,4.1814 33.0858,-10.5572 22.7524,-27.6103 -29.0382,-1.8056 -23.1165,25.0709 -22.7524,27.6103 z"
         inkscape:connector-curvature="0" />
      <path
         id="use16099"
         style="fill:#8ae234;stroke:#4e9a06;stroke-width:4;stroke-linecap:round;stroke-linejoin:miter;stroke-miterlimit:4;stroke-opacity:1;stroke-dasharray:none;display:inline"
         d="m 565.125,255.27603 c 5.0897,8.1687 11.7507,16.7345 12,24 m -12,-24 c -8.3714,8.5487 -3.7793,34.5231 16,32 13.4354,-25.8064 -13.5314,-31.3022 -16,-32 z"
         inkscape:connector-curvature="0" />
      <path
         id="use16101"
         style="fill:#8ae234;stroke:#4e9a06;stroke-width:4;stroke-linecap:round;stroke-linejoin:miter;stroke-miterlimit:4;stroke-opacity:1;stroke-dasharray:none;display:inline"
         d="m 539.824,299.65383 c 8.9495,-3.5411 18.5717,-8.5568 25.7639,-7.4981 m -25.7639,7.4981 c 6.9076,9.7696 33.2844,9.9135 34.3519,-9.9974 -22.9762,-17.8487 -33.2224,7.6941 -34.3519,9.9974 z"
         inkscape:connector-curvature="0" />
      <path
         id="use16103"
         style="fill:#8ae234;stroke:#4e9a06;stroke-width:4;stroke-linecap:round;stroke-linejoin:miter;stroke-miterlimit:4;stroke-opacity:1;stroke-dasharray:none;display:inline"
         d="m 651.6226,378.81873 c 9.0953,-3.1477 18.9269,-7.7392 26.0662,-6.368 m -26.0662,6.368 c 6.4751,10.0614 32.8206,11.3549 34.755,-8.4906 -22.1765,-18.8332 -33.5262,6.2387 -34.755,8.4906 z"
         inkscape:connector-curvature="0" />
      <path
         id="use16105"
         style="fill:#8ae234;stroke:#4e9a06;stroke-width:4;stroke-linecap:round;stroke-linejoin:miter;stroke-miterlimit:4;stroke-opacity:1;stroke-dasharray:none;display:inline"
         d="m 423,384.90103 c -9.1994,-2.8289 -19.185,-7.0752 -26.2722,-5.4562 M 423,384.90103 c -6.1207,10.2808 -32.4052,12.4912 -35.0296,-7.2749 21.507,-19.5941 33.7231,5.0672 35.0296,7.2749 z"
         inkscape:connector-curvature="0" />
    </g>
  </g>
</svg>
